<svg width="20" height="21" viewBox="0 0 20 21" fill="none" xmlns="http://www.w3.org/2000/svg">
<path d="M12 17.0001C12.2652 17.0001 12.5196 16.8948 12.7071 16.7073C12.8946 16.5197 13 16.2654 13 16.0001V14.0001C13 13.7349 12.8946 13.4806 12.7071 13.293C12.5196 13.1055 12.2652 13.0001 12 13.0001C11.7348 13.0001 11.4804 13.1055 11.2929 13.293C11.1054 13.4806 11 13.7349 11 14.0001V16.0001C11 16.2654 11.1054 16.5197 11.2929 16.7073C11.4804 16.8948 11.7348 17.0001 12 17.0001ZM8 17.0001C8.26521 17.0001 8.51957 16.8948 8.70711 16.7073C8.89464 16.5197 9 16.2654 9 16.0001V14.0001C9 13.7349 8.89464 13.4806 8.70711 13.293C8.51957 13.1055 8.26521 13.0001 8 13.0001C7.73478 13.0001 7.48043 13.1055 7.29289 13.293C7.10536 13.4806 7 13.7349 7 14.0001V16.0001C7 16.2654 7.10536 16.5197 7.29289 16.7073C7.48043 16.8948 7.73478 17.0001 8 17.0001ZM17 5.00015H15.62L13.89 1.55015C13.8371 1.4232 13.7587 1.30852 13.6595 1.21328C13.5603 1.11803 13.4425 1.04427 13.3135 0.996591C13.1845 0.948917 13.0471 0.928357 12.9098 0.936197C12.7725 0.944037 12.6383 0.980109 12.5156 1.04216C12.3929 1.10421 12.2843 1.1909 12.1966 1.29682C12.1089 1.40274 12.044 1.5256 12.0059 1.65774C11.9679 1.78988 11.9574 1.92845 11.9754 2.0648C11.9933 2.20114 12.0391 2.33232 12.11 2.45015L13.38 5.00015H6.62L7.89 2.45015C7.98706 2.21706 7.99236 1.95587 7.90482 1.71904C7.81728 1.4822 7.64339 1.28725 7.41806 1.17331C7.19273 1.05938 6.93264 1.03491 6.69001 1.10481C6.44739 1.17471 6.24018 1.3338 6.11 1.55015L4.38 5.00015H3C2.29319 5.0109 1.61287 5.2709 1.07905 5.73428C0.545221 6.19767 0.192172 6.83468 0.0821692 7.53296C-0.027834 8.23124 0.112275 8.94594 0.477785 9.551C0.843294 10.1561 1.41072 10.6126 2.08 10.8401L2.82 18.3001C2.89462 19.0427 3.24334 19.7308 3.79807 20.2301C4.3528 20.7293 5.0737 21.0039 5.82 21.0001H14.2C14.9463 21.0039 15.6672 20.7293 16.2219 20.2301C16.7767 19.7308 17.1254 19.0427 17.2 18.3001L17.94 10.8401C18.6107 10.6119 19.1791 10.1537 19.5443 9.54663C19.9096 8.93955 20.0482 8.22278 19.9356 7.52329C19.823 6.8238 19.4665 6.18674 18.9292 5.72492C18.3919 5.26311 17.7085 5.00636 17 5.00015ZM15.19 18.1001C15.1651 18.3477 15.0489 18.577 14.864 18.7435C14.6791 18.9099 14.4388 19.0014 14.19 19.0001H5.81C5.56123 19.0014 5.32093 18.9099 5.13602 18.7435C4.95111 18.577 4.83487 18.3477 4.81 18.1001L4.1 11.0001H15.9L15.19 18.1001ZM17 9.00015H3C2.73478 9.00015 2.48043 8.89479 2.29289 8.70726C2.10536 8.51972 2 8.26537 2 8.00015C2 7.73493 2.10536 7.48058 2.29289 7.29304C2.48043 7.10551 2.73478 7.00015 3 7.00015H17C17.2652 7.00015 17.5196 7.10551 17.7071 7.29304C17.8946 7.48058 18 7.73493 18 8.00015C18 8.26537 17.8946 8.51972 17.7071 8.70726C17.5196 8.89479 17.2652 9.00015 17 9.00015Z" fill="#3692FD"/>
</svg>
