<?xml version="1.0" ?><svg viewBox="0 0 512 512" xmlns="http://www.w3.org/2000/svg" fill="#FFF"><g data-name="Capa 4" id="Capa_4"><path d="M355.63,446.76H156.37a44,44,0,0,1-44-44V109.2a44,44,0,0,1,44-44H355.63a44,44,0,0,1,44,44V402.8A44,44,0,0,1,355.63,446.76ZM156.37,77.24a32,32,0,0,0-32,32V402.8a32,32,0,0,0,32,32H355.63a32,32,0,0,0,32-32V109.2a32,32,0,0,0-32-32Z" fill="#FFF"/><path d="M338,287.76A31.76,31.76,0,1,1,369.73,256,31.8,31.8,0,0,1,338,287.76Zm0-51.52A19.76,19.76,0,1,0,357.73,256,19.78,19.78,0,0,0,338,236.24Z" fill="#FFF"/></g></svg>